<svg width="108" height="70" viewBox="0 0 108 128" fill="none" xmlns="http://www.w3.org/2000/svg">
<path d="M50.4998 86.7495L50.5004 127.407M50.5 -0.000199901L50.5005 40.6569" stroke="#643278" stroke-width="2"/>
<rect width="108" height="51.7753" transform="translate(0 38.2153)" fill="none"/>
<g clip-path="url(#clip0_666_19657)">
<path d="M46.5 64.103C46.5 65.2897 46.1481 66.4498 45.4888 67.4364C44.8295 68.4231 43.8925 69.1922 42.7961 69.6463C41.6997 70.1004 40.4933 70.2192 39.3295 69.9877C38.1656 69.7562 37.0965 69.1848 36.2574 68.3457C35.4182 67.5065 34.8468 66.4375 34.6153 65.2736C34.3838 64.1097 34.5026 62.9033 34.9567 61.8069C35.4109 60.7106 36.1799 59.7735 37.1666 59.1142C38.1533 58.4549 39.3133 58.103 40.5 58.103C42.0913 58.103 43.6174 58.7352 44.7426 59.8604C45.8679 60.9856 46.5 62.5117 46.5 64.103Z" fill="#643278"/>
<path d="M66.6855 63.812V64.4409C66.6855 65.1883 66.5921 65.8582 66.4053 66.4507C66.2184 67.0431 65.9495 67.5467 65.5986 67.9614C65.2477 68.3761 64.8262 68.6929 64.334 68.9116C63.8464 69.1304 63.2995 69.2397 62.6934 69.2397C62.1055 69.2397 61.5654 69.1304 61.0732 68.9116C60.5856 68.6929 60.1618 68.3761 59.8018 67.9614C59.4463 67.5467 59.1706 67.0431 58.9746 66.4507C58.7786 65.8582 58.6807 65.1883 58.6807 64.4409V63.812C58.6807 63.0646 58.7764 62.397 58.9678 61.8091C59.1637 61.2166 59.4395 60.7131 59.7949 60.2983C60.1504 59.8791 60.5719 59.5601 61.0596 59.3413C61.5518 59.1226 62.0918 59.0132 62.6797 59.0132C63.2858 59.0132 63.8327 59.1226 64.3203 59.3413C64.8125 59.5601 65.234 59.8791 65.585 60.2983C65.9404 60.7131 66.2116 61.2166 66.3984 61.8091C66.5898 62.397 66.6855 63.0646 66.6855 63.812ZM65.3799 64.4409V63.7983C65.3799 63.2059 65.3184 62.6818 65.1953 62.2261C65.0768 61.7703 64.9014 61.3875 64.6689 61.0776C64.4365 60.7677 64.1517 60.533 63.8145 60.3735C63.4818 60.214 63.1035 60.1343 62.6797 60.1343C62.2695 60.1343 61.8981 60.214 61.5654 60.3735C61.2373 60.533 60.9548 60.7677 60.7178 61.0776C60.4854 61.3875 60.3053 61.7703 60.1777 62.2261C60.0501 62.6818 59.9863 63.2059 59.9863 63.7983V64.4409C59.9863 65.0379 60.0501 65.5666 60.1777 66.0269C60.3053 66.4826 60.4876 66.8677 60.7246 67.1821C60.9661 67.492 61.251 67.7267 61.5791 67.8862C61.9118 68.0457 62.2832 68.1255 62.6934 68.1255C63.1217 68.1255 63.5023 68.0457 63.835 67.8862C64.1676 67.7267 64.4479 67.492 64.6758 67.1821C64.9082 66.8677 65.0837 66.4826 65.2021 66.0269C65.3206 65.5666 65.3799 65.0379 65.3799 64.4409ZM68.6611 59.1499H71.9561C72.7035 59.1499 73.3346 59.2638 73.8496 59.4917C74.3691 59.7196 74.7633 60.0568 75.0322 60.5034C75.3057 60.9455 75.4424 61.4901 75.4424 62.1372C75.4424 62.5929 75.349 63.0099 75.1621 63.3882C74.9798 63.7619 74.7155 64.0809 74.3691 64.3452C74.0273 64.605 73.6172 64.7987 73.1387 64.9263L72.7695 65.0698H69.6729L69.6592 63.9966H71.9971C72.471 63.9966 72.8652 63.9146 73.1797 63.7505C73.4941 63.5819 73.7311 63.3563 73.8906 63.0737C74.0501 62.7912 74.1299 62.479 74.1299 62.1372C74.1299 61.7544 74.0547 61.4194 73.9043 61.1323C73.7539 60.8452 73.5169 60.6242 73.1934 60.4692C72.8743 60.3097 72.4619 60.23 71.9561 60.23H69.9805V69.103H68.6611V59.1499ZM74.4785 69.103L72.0586 64.5913L73.4326 64.5845L75.8867 69.021V69.103H74.4785Z" fill="#40444A"/>
</g>
<path d="M1 43.2153H86.1124C97.6483 43.2153 107 52.567 107 64.103C107 75.6389 97.6483 84.9906 86.1124 84.9906H1V43.2153Z" stroke="#643278" stroke-width="2"/>
<defs>
<clipPath id="clip0_666_19657">
<path d="M0 42.2153H86.1124C98.2006 42.2153 108 52.0148 108 64.103V64.103C108 76.1912 98.2006 85.9906 86.1124 85.9906H0V42.2153Z" fill="white"/>
</clipPath>
</defs>
</svg>