<svg width="108" height="70" viewBox="0 0 108 128" fill="none" xmlns="http://www.w3.org/2000/svg">
<path d="M50.4998 86.7495L50.5004 127.407M50.5 -0.000199901L50.5005 40.6569" stroke="#643278" stroke-width="2"/>
<rect width="108" height="51.7753" transform="translate(0 38.2153)" fill="none"/>
<g clip-path="url(#clip0_666_19657)">
<path d="M41.5 64.103C41.5 65.2897 41.1481 66.4498 40.4888 67.4364C39.8295 68.4231 38.8925 69.1922 37.7961 69.6463C36.6997 70.1004 35.4933 70.2192 34.3295 69.9877C33.1656 69.7562 32.0965 69.1848 31.2574 68.3457C30.4182 67.5065 29.8468 66.4375 29.6153 65.2736C29.3838 64.1097 29.5026 62.9033 29.9567 61.8069C30.4109 60.7106 31.1799 59.7735 32.1666 59.1142C33.1533 58.4549 34.3133 58.103 35.5 58.103C37.0913 58.103 38.6174 58.7352 39.7426 59.8604C40.8679 60.9856 41.5 62.5117 41.5 64.103Z" fill="#643278"/>
<path d="M57.6826 60.0317L54.3877 69.103H53.041L56.835 59.1499H57.7031L57.6826 60.0317ZM60.4443 69.103L57.1426 60.0317L57.1221 59.1499H57.9902L61.7979 69.103H60.4443ZM60.2734 65.4185V66.4985H54.6816V65.4185H60.2734ZM70.7871 59.1499V69.103H69.4609L64.4502 61.4263V69.103H63.1309V59.1499H64.4502L69.4814 66.8472V59.1499H70.7871ZM75.8184 69.103H73.7402L73.7539 68.0298H75.8184C76.5293 68.0298 77.1217 67.8817 77.5957 67.5854C78.0697 67.2847 78.4251 66.8654 78.6621 66.3276C78.9036 65.7853 79.0244 65.1519 79.0244 64.4272V63.8188C79.0244 63.2492 78.9561 62.7433 78.8193 62.3013C78.6826 61.8547 78.4821 61.4787 78.2178 61.1733C77.9535 60.8634 77.6299 60.6287 77.2471 60.4692C76.8688 60.3097 76.4336 60.23 75.9414 60.23H73.6992V59.1499H75.9414C76.5931 59.1499 77.1878 59.2593 77.7256 59.478C78.2633 59.6922 78.7259 60.0044 79.1133 60.4146C79.5052 60.8201 79.806 61.3123 80.0156 61.8911C80.2253 62.4653 80.3301 63.1125 80.3301 63.8325V64.4272C80.3301 65.1473 80.2253 65.7967 80.0156 66.3755C79.806 66.9497 79.5029 67.4396 79.1064 67.8452C78.7145 68.2508 78.2406 68.563 77.6846 68.7817C77.1331 68.9959 76.5111 69.103 75.8184 69.103ZM74.4443 59.1499V69.103H73.125V59.1499H74.4443Z" fill="#40444A"/>
</g>
<path d="M1 43.2153H86.1124C97.6483 43.2153 107 52.567 107 64.103C107 75.6389 97.6483 84.9906 86.1124 84.9906H1V43.2153Z" stroke="#643278" stroke-width="2"/>
<defs>
<clipPath id="clip0_666_19657">
<path d="M0 42.2153H86.1124C98.2006 42.2153 108 52.0148 108 64.103V64.103C108 76.1912 98.2006 85.9906 86.1124 85.9906H0V42.2153Z" fill="white"/>
</clipPath>
</defs>
</svg>